# xmcd CD database file
# Copyright (C) 1995 Ti Kan
#
# Track frame offsets:
#	150
#	9619
#	21167
#	30691
#	43481
#	54627
#	70814
#	81079
#	93187
#	104353
#	115919
#	128813
#	144510
#	150386
#	171254
#
# Disc length: 2466 seconds
#
# Revision: 1
# Processed by: cddbd v1.4PL0 Copyright (c) Steve Scherf et al.
# Submitted via: NotifyCDPlayer(CDDB) 1.60beta5_freedb
#
DISCID=c509a00f
DTITLE=Waylon Jennings - The Journey: Six Strings Away Vol. 6
DYEAR=1900
DGENRE=
TTITLE0=I'm a Long Way From Home (Guitar Version)
TTITLE1=What Makes A Man Wander
TTITLE2=John's Back In Town
TTITLE3=Cedartown Georgia
TTITLE4=Something's Wrong In California
TTITLE5=The Days Of Sand And Shovels
TTITLE6=Just To Satisfy You
TTITLE7=For The Kids
TTITLE8=Change My Mind
TTITLE9=Lonely Weekends
TTITLE10=Don't Play the Game
TTITLE11=The House Song
TTITLE12=The Same Old Lover Man
TTITLE13=Ned Kelly
TTITLE14=Shadows Of the Gallows
EXTD=
EXTT0=
EXTT1=
EXTT2=
EXTT3=
EXTT4=
EXTT5=
EXTT6=
EXTT7=
EXTT8=
EXTT9=
EXTT10=
EXTT11=
EXTT12=
EXTT13=
EXTT14=
PLAYORDER=
